# xmcd
#
# Track frame offsets: 
#        150
#        12696
#        26681
#        39742
#        57521
#        75283
#        91797
#        113360
#        127775
#        142435
#        158768
#        172385
#        187507
#        201646
#
# Disc length: 2947 seconds
#
# Revision: 0
# Processed by: cddbd v1.5.2PL0 Copyright (c) Steve Scherf et al.
# Submitted via: ExactAudioCopy v0.95b3
#
DISCID=ba0b810e
DTITLE=The Beatles  - 1967-1970 CD 2  (US Stereo Ebbetts)
DYEAR=1900
DGENRE=
TTITLE0=Back in the USSR
TTITLE1=Something
TTITLE2=Octopus's Garden
TTITLE3=Let It be
TTITLE4=Across the Universe
TTITLE5=The Long and Winding Road
TTITLE6=While My Guitar Gently Weeps
TTITLE7=Ob La Di, Ob La Da
TTITLE8=Get Back
TTITLE9=Don't Let Me Down
TTITLE10=The Balad Of John and Yoko
TTITLE11=Old Brown Shoe
TTITLE12=Here Comes the Sun
TTITLE13=Come Together
EXTD=
EXTT0=
EXTT1=
EXTT2=
EXTT3=
EXTT4=
EXTT5=
EXTT6=
EXTT7=
EXTT8=
EXTT9=
EXTT10=
EXTT11=
EXTT12=
EXTT13=
PLAYORDER=
